<mxfile host="app.diagrams.net" agent="Mozilla/5.0 (Macintosh; Intel Mac OS X 10_15_7) AppleWebKit/537.36 (KHTML, like Gecko) Chrome/139.0.0.0 Safari/537.36" version="28.1.2">
  <diagram name="Page-1" id="NZKQCg1ha_r7QJI9xCGj">
    <mxGraphModel dx="2253" dy="1959" grid="1" gridSize="10" guides="1" tooltips="1" connect="1" arrows="1" fold="1" page="1" pageScale="1" pageWidth="827" pageHeight="1169" math="0" shadow="0">
      <root>
        <mxCell id="0" />
        <mxCell id="1" parent="0" />
        <mxCell id="VzwTH26_Pi-GNN5dby0--1" value="AWS Cloud" style="points=[[0,0],[0.25,0],[0.5,0],[0.75,0],[1,0],[1,0.25],[1,0.5],[1,0.75],[1,1],[0.75,1],[0.5,1],[0.25,1],[0,1],[0,0.75],[0,0.5],[0,0.25]];outlineConnect=0;gradientColor=none;html=1;whiteSpace=wrap;fontSize=12;fontStyle=0;shape=mxgraph.aws4.group;grIcon=mxgraph.aws4.group_aws_cloud_alt;strokeColor=#232F3E;fillColor=none;verticalAlign=top;align=left;spacingLeft=30;fontColor=#232F3E;dashed=0;labelBackgroundColor=#ffffff;container=1;pointerEvents=0;collapsible=0;recursiveResize=0;" parent="1" vertex="1">
          <mxGeometry x="-570" y="140" width="1300" height="920" as="geometry" />
        </mxCell>
        <mxCell id="VzwTH26_Pi-GNN5dby0--62" value="Availability Zone 1" style="fillColor=none;strokeColor=#147EBA;dashed=1;verticalAlign=top;fontStyle=0;fontColor=#147EBA;whiteSpace=wrap;html=1;" parent="VzwTH26_Pi-GNN5dby0--1" vertex="1">
          <mxGeometry x="794" y="156" width="250" height="659" as="geometry" />
        </mxCell>
        <mxCell id="VzwTH26_Pi-GNN5dby0--31" value="Availability Zone 1" style="fillColor=none;strokeColor=#147EBA;dashed=1;verticalAlign=top;fontStyle=0;fontColor=#147EBA;whiteSpace=wrap;html=1;" parent="VzwTH26_Pi-GNN5dby0--1" vertex="1">
          <mxGeometry x="185" y="171" width="250" height="659" as="geometry" />
        </mxCell>
        <mxCell id="VzwTH26_Pi-GNN5dby0--35" value="VPC" style="sketch=0;outlineConnect=0;gradientColor=none;html=1;whiteSpace=wrap;fontSize=12;fontStyle=0;shape=mxgraph.aws4.group;grIcon=mxgraph.aws4.group_vpc;strokeColor=#009900;fillColor=none;verticalAlign=top;align=left;spacingLeft=30;fontColor=#009900;dashed=0;" parent="VzwTH26_Pi-GNN5dby0--1" vertex="1">
          <mxGeometry x="88" y="103" width="1060" height="737" as="geometry" />
        </mxCell>
        <mxCell id="VzwTH26_Pi-GNN5dby0--3" value="Private subnet-backend02&lt;div&gt;&lt;br&gt;&lt;/div&gt;" style="points=[[0,0],[0.25,0],[0.5,0],[0.75,0],[1,0],[1,0.25],[1,0.5],[1,0.75],[1,1],[0.75,1],[0.5,1],[0.25,1],[0,1],[0,0.75],[0,0.5],[0,0.25]];outlineConnect=0;gradientColor=none;html=1;whiteSpace=wrap;fontSize=12;fontStyle=0;container=1;pointerEvents=0;collapsible=0;recursiveResize=0;shape=mxgraph.aws4.group;grIcon=mxgraph.aws4.group_security_group;grStroke=0;strokeColor=#00A4A6;fillColor=#E6F6F7;verticalAlign=top;align=left;spacingLeft=30;fontColor=#147EBA;dashed=0;" parent="VzwTH26_Pi-GNN5dby0--1" vertex="1">
          <mxGeometry x="809" y="600" width="220" height="200" as="geometry" />
        </mxCell>
        <mxCell id="VzwTH26_Pi-GNN5dby0--10" value="Standby DB instance&lt;div&gt;&lt;br&gt;&lt;/div&gt;" style="outlineConnect=0;dashed=0;verticalLabelPosition=bottom;verticalAlign=top;align=center;html=1;shape=mxgraph.aws3.rds_db_instance_standby_multi_az;fillColor=#2E73B8;gradientColor=none;" parent="VzwTH26_Pi-GNN5dby0--3" vertex="1">
          <mxGeometry x="65" y="50" width="60" height="80" as="geometry" />
        </mxCell>
        <mxCell id="VzwTH26_Pi-GNN5dby0--4" value="Private subnet-backend01" style="points=[[0,0],[0.25,0],[0.5,0],[0.75,0],[1,0],[1,0.25],[1,0.5],[1,0.75],[1,1],[0.75,1],[0.5,1],[0.25,1],[0,1],[0,0.75],[0,0.5],[0,0.25]];outlineConnect=0;gradientColor=none;html=1;whiteSpace=wrap;fontSize=12;fontStyle=0;container=1;pointerEvents=0;collapsible=0;recursiveResize=0;shape=mxgraph.aws4.group;grIcon=mxgraph.aws4.group_security_group;grStroke=0;strokeColor=#00A4A6;fillColor=#E6F6F7;verticalAlign=top;align=left;spacingLeft=30;fontColor=#147EBA;dashed=0;" parent="VzwTH26_Pi-GNN5dby0--1" vertex="1">
          <mxGeometry x="200" y="600" width="220" height="200" as="geometry" />
        </mxCell>
        <mxCell id="VzwTH26_Pi-GNN5dby0--14" value="Primary DB instance" style="outlineConnect=0;dashed=0;verticalLabelPosition=bottom;verticalAlign=top;align=center;html=1;shape=mxgraph.aws3.rds_db_instance;fillColor=#2E73B8;gradientColor=none;" parent="VzwTH26_Pi-GNN5dby0--4" vertex="1">
          <mxGeometry x="49.5" y="50" width="65" height="82.5" as="geometry" />
        </mxCell>
        <mxCell id="VzwTH26_Pi-GNN5dby0--8" value="Private subnet- frontend01" style="points=[[0,0],[0.25,0],[0.5,0],[0.75,0],[1,0],[1,0.25],[1,0.5],[1,0.75],[1,1],[0.75,1],[0.5,1],[0.25,1],[0,1],[0,0.75],[0,0.5],[0,0.25]];outlineConnect=0;gradientColor=none;html=1;whiteSpace=wrap;fontSize=12;fontStyle=0;container=1;pointerEvents=0;collapsible=0;recursiveResize=0;shape=mxgraph.aws4.group;grIcon=mxgraph.aws4.group_security_group;grStroke=0;strokeColor=#00A4A6;fillColor=#E6F6F7;verticalAlign=top;align=left;spacingLeft=30;fontColor=#147EBA;dashed=0;" parent="VzwTH26_Pi-GNN5dby0--1" vertex="1">
          <mxGeometry x="201" y="366" width="219" height="204" as="geometry" />
        </mxCell>
        <mxCell id="VzwTH26_Pi-GNN5dby0--12" value="Application Load Balancer&lt;br&gt;用路径区别访问流程&lt;br&gt;https://ALB-DNS-- Prod&lt;br&gt;https://ALB-DNS/test-- Test&lt;div&gt;&lt;br&gt;&lt;div&gt;&lt;br&gt;&lt;/div&gt;&lt;/div&gt;" style="sketch=0;outlineConnect=0;fontColor=#232F3E;gradientColor=none;fillColor=#8C4FFF;strokeColor=none;dashed=0;verticalLabelPosition=bottom;verticalAlign=top;align=center;html=1;fontSize=12;fontStyle=0;aspect=fixed;pointerEvents=1;shape=mxgraph.aws4.application_load_balancer;" parent="VzwTH26_Pi-GNN5dby0--1" vertex="1">
          <mxGeometry x="569.75" y="156" width="68" height="68" as="geometry" />
        </mxCell>
        <mxCell id="VzwTH26_Pi-GNN5dby0--59" style="edgeStyle=orthogonalEdgeStyle;rounded=0;orthogonalLoop=1;jettySize=auto;html=1;" parent="VzwTH26_Pi-GNN5dby0--1" source="VzwTH26_Pi-GNN5dby0--27" target="VzwTH26_Pi-GNN5dby0--12" edge="1">
          <mxGeometry relative="1" as="geometry" />
        </mxCell>
        <mxCell id="VzwTH26_Pi-GNN5dby0--27" value="AWS WAF&lt;br&gt;Web Application Fire Wall" style="sketch=0;points=[[0,0,0],[0.25,0,0],[0.5,0,0],[0.75,0,0],[1,0,0],[0,1,0],[0.25,1,0],[0.5,1,0],[0.75,1,0],[1,1,0],[0,0.25,0],[0,0.5,0],[0,0.75,0],[1,0.25,0],[1,0.5,0],[1,0.75,0]];outlineConnect=0;fontColor=#232F3E;fillColor=#DD344C;strokeColor=#ffffff;dashed=0;verticalLabelPosition=bottom;verticalAlign=top;align=center;html=1;fontSize=12;fontStyle=0;aspect=fixed;shape=mxgraph.aws4.resourceIcon;resIcon=mxgraph.aws4.waf;" parent="VzwTH26_Pi-GNN5dby0--1" vertex="1">
          <mxGeometry x="568.25" y="12.5" width="71" height="71" as="geometry" />
        </mxCell>
        <mxCell id="VzwTH26_Pi-GNN5dby0--32" value="Public subnet -pub01&lt;div&gt;&lt;br&gt;&lt;/div&gt;" style="points=[[0,0],[0.25,0],[0.5,0],[0.75,0],[1,0],[1,0.25],[1,0.5],[1,0.75],[1,1],[0.75,1],[0.5,1],[0.25,1],[0,1],[0,0.75],[0,0.5],[0,0.25]];outlineConnect=0;gradientColor=none;html=1;whiteSpace=wrap;fontSize=12;fontStyle=0;container=1;pointerEvents=0;collapsible=0;recursiveResize=0;shape=mxgraph.aws4.group;grIcon=mxgraph.aws4.group_security_group;grStroke=0;strokeColor=#7AA116;fillColor=#F2F6E8;verticalAlign=top;align=left;spacingLeft=30;fontColor=#248814;dashed=0;" parent="VzwTH26_Pi-GNN5dby0--1" vertex="1">
          <mxGeometry x="200" y="211.5" width="220" height="158.5" as="geometry" />
        </mxCell>
        <mxCell id="VzwTH26_Pi-GNN5dby0--33" value="NAT Gateway&lt;div&gt;&lt;br&gt;&lt;/div&gt;" style="sketch=0;outlineConnect=0;fontColor=#232F3E;gradientColor=none;fillColor=#8C4FFF;strokeColor=none;dashed=0;verticalLabelPosition=bottom;verticalAlign=top;align=center;html=1;fontSize=12;fontStyle=0;aspect=fixed;pointerEvents=1;shape=mxgraph.aws4.nat_gateway;" parent="VzwTH26_Pi-GNN5dby0--32" vertex="1">
          <mxGeometry x="70.5" y="40" width="78" height="78" as="geometry" />
        </mxCell>
        <mxCell id="VzwTH26_Pi-GNN5dby0--36" value="Production EC2&lt;div&gt;&lt;br&gt;&lt;/div&gt;" style="sketch=0;points=[[0,0,0],[0.25,0,0],[0.5,0,0],[0.75,0,0],[1,0,0],[0,1,0],[0.25,1,0],[0.5,1,0],[0.75,1,0],[1,1,0],[0,0.25,0],[0,0.5,0],[0,0.75,0],[1,0.25,0],[1,0.5,0],[1,0.75,0]];outlineConnect=0;fontColor=#232F3E;fillColor=#ED7100;strokeColor=#ffffff;dashed=0;verticalLabelPosition=bottom;verticalAlign=top;align=center;html=1;fontSize=12;fontStyle=0;aspect=fixed;shape=mxgraph.aws4.resourceIcon;resIcon=mxgraph.aws4.ec2;" parent="VzwTH26_Pi-GNN5dby0--1" vertex="1">
          <mxGeometry x="243" y="410" width="78" height="78" as="geometry" />
        </mxCell>
        <mxCell id="VzwTH26_Pi-GNN5dby0--60" style="edgeStyle=orthogonalEdgeStyle;rounded=0;orthogonalLoop=1;jettySize=auto;html=1;entryX=0;entryY=0.5;entryDx=0;entryDy=0;entryPerimeter=0;" parent="VzwTH26_Pi-GNN5dby0--1" source="VzwTH26_Pi-GNN5dby0--14" target="VzwTH26_Pi-GNN5dby0--10" edge="1">
          <mxGeometry relative="1" as="geometry" />
        </mxCell>
        <mxCell id="VzwTH26_Pi-GNN5dby0--61" value="DataSync" style="edgeLabel;html=1;align=center;verticalAlign=middle;resizable=0;points=[];" parent="VzwTH26_Pi-GNN5dby0--60" vertex="1" connectable="0">
          <mxGeometry x="0.105" y="-4" relative="1" as="geometry">
            <mxPoint as="offset" />
          </mxGeometry>
        </mxCell>
        <mxCell id="VzwTH26_Pi-GNN5dby0--63" value="Public subnet -pub01&lt;div&gt;&lt;br&gt;&lt;/div&gt;" style="points=[[0,0],[0.25,0],[0.5,0],[0.75,0],[1,0],[1,0.25],[1,0.5],[1,0.75],[1,1],[0.75,1],[0.5,1],[0.25,1],[0,1],[0,0.75],[0,0.5],[0,0.25]];outlineConnect=0;gradientColor=none;html=1;whiteSpace=wrap;fontSize=12;fontStyle=0;container=1;pointerEvents=0;collapsible=0;recursiveResize=0;shape=mxgraph.aws4.group;grIcon=mxgraph.aws4.group_security_group;grStroke=0;strokeColor=#7AA116;fillColor=#F2F6E8;verticalAlign=top;align=left;spacingLeft=30;fontColor=#248814;dashed=0;" parent="VzwTH26_Pi-GNN5dby0--1" vertex="1">
          <mxGeometry x="809" y="211.5" width="220" height="158.5" as="geometry" />
        </mxCell>
        <mxCell id="VzwTH26_Pi-GNN5dby0--64" value="NAT Gateway&lt;div&gt;&lt;br&gt;&lt;/div&gt;" style="sketch=0;outlineConnect=0;fontColor=#232F3E;gradientColor=none;fillColor=#8C4FFF;strokeColor=none;dashed=0;verticalLabelPosition=bottom;verticalAlign=top;align=center;html=1;fontSize=12;fontStyle=0;aspect=fixed;pointerEvents=1;shape=mxgraph.aws4.nat_gateway;" parent="VzwTH26_Pi-GNN5dby0--63" vertex="1">
          <mxGeometry x="70.5" y="40" width="78" height="78" as="geometry" />
        </mxCell>
        <mxCell id="VzwTH26_Pi-GNN5dby0--65" value="Private subnet- frontend01" style="points=[[0,0],[0.25,0],[0.5,0],[0.75,0],[1,0],[1,0.25],[1,0.5],[1,0.75],[1,1],[0.75,1],[0.5,1],[0.25,1],[0,1],[0,0.75],[0,0.5],[0,0.25]];outlineConnect=0;gradientColor=none;html=1;whiteSpace=wrap;fontSize=12;fontStyle=0;container=1;pointerEvents=0;collapsible=0;recursiveResize=0;shape=mxgraph.aws4.group;grIcon=mxgraph.aws4.group_security_group;grStroke=0;strokeColor=#00A4A6;fillColor=#E6F6F7;verticalAlign=top;align=left;spacingLeft=30;fontColor=#147EBA;dashed=0;" parent="VzwTH26_Pi-GNN5dby0--1" vertex="1">
          <mxGeometry x="809" y="370" width="219" height="204" as="geometry" />
        </mxCell>
        <mxCell id="VzwTH26_Pi-GNN5dby0--34" value="Auto Scaling group" style="points=[[0,0],[0.25,0],[0.5,0],[0.75,0],[1,0],[1,0.25],[1,0.5],[1,0.75],[1,1],[0.75,1],[0.5,1],[0.25,1],[0,1],[0,0.75],[0,0.5],[0,0.25]];outlineConnect=0;gradientColor=none;html=1;whiteSpace=wrap;fontSize=12;fontStyle=0;container=1;pointerEvents=0;collapsible=0;recursiveResize=0;shape=mxgraph.aws4.groupCenter;grIcon=mxgraph.aws4.group_auto_scaling_group;grStroke=1;strokeColor=#D86613;fillColor=none;verticalAlign=top;align=center;fontColor=#D86613;dashed=1;spacingTop=25;" parent="VzwTH26_Pi-GNN5dby0--1" vertex="1">
          <mxGeometry x="213" y="393" width="810" height="150" as="geometry" />
        </mxCell>
        <mxCell id="VzwTH26_Pi-GNN5dby0--37" value="for web App" style="text;html=1;align=center;verticalAlign=middle;whiteSpace=wrap;rounded=0;fontColor=light-dark(#df6311, #ededed);" parent="VzwTH26_Pi-GNN5dby0--34" vertex="1">
          <mxGeometry x="345" y="40" width="130" height="30" as="geometry" />
        </mxCell>
        <mxCell id="VzwTH26_Pi-GNN5dby0--28" value="Test EC2" style="sketch=0;points=[[0,0,0],[0.25,0,0],[0.5,0,0],[0.75,0,0],[1,0,0],[0,1,0],[0.25,1,0],[0.5,1,0],[0.75,1,0],[1,1,0],[0,0.25,0],[0,0.5,0],[0,0.75,0],[1,0.25,0],[1,0.5,0],[1,0.75,0]];outlineConnect=0;fontColor=#232F3E;fillColor=#ED7100;strokeColor=#ffffff;dashed=0;verticalLabelPosition=bottom;verticalAlign=top;align=center;html=1;fontSize=12;fontStyle=0;aspect=fixed;shape=mxgraph.aws4.resourceIcon;resIcon=mxgraph.aws4.ec2;" parent="VzwTH26_Pi-GNN5dby0--34" vertex="1">
          <mxGeometry x="661" y="27" width="78" height="78" as="geometry" />
        </mxCell>
        <mxCell id="VzwTH26_Pi-GNN5dby0--66" style="edgeStyle=orthogonalEdgeStyle;rounded=0;orthogonalLoop=1;jettySize=auto;html=1;entryX=1;entryY=0.5;entryDx=0;entryDy=0;entryPerimeter=0;" parent="VzwTH26_Pi-GNN5dby0--1" source="VzwTH26_Pi-GNN5dby0--12" target="VzwTH26_Pi-GNN5dby0--36" edge="1">
          <mxGeometry relative="1" as="geometry" />
        </mxCell>
        <mxCell id="VzwTH26_Pi-GNN5dby0--68" value="AWS Cloudwatch" style="sketch=0;points=[[0,0,0],[0.25,0,0],[0.5,0,0],[0.75,0,0],[1,0,0],[0,1,0],[0.25,1,0],[0.5,1,0],[0.75,1,0],[1,1,0],[0,0.25,0],[0,0.5,0],[0,0.75,0],[1,0.25,0],[1,0.5,0],[1,0.75,0]];points=[[0,0,0],[0.25,0,0],[0.5,0,0],[0.75,0,0],[1,0,0],[0,1,0],[0.25,1,0],[0.5,1,0],[0.75,1,0],[1,1,0],[0,0.25,0],[0,0.5,0],[0,0.75,0],[1,0.25,0],[1,0.5,0],[1,0.75,0]];outlineConnect=0;fontColor=#232F3E;fillColor=#E7157B;strokeColor=#ffffff;dashed=0;verticalLabelPosition=bottom;verticalAlign=top;align=center;html=1;fontSize=12;fontStyle=0;aspect=fixed;shape=mxgraph.aws4.resourceIcon;resIcon=mxgraph.aws4.cloudwatch_2;" parent="VzwTH26_Pi-GNN5dby0--1" vertex="1">
          <mxGeometry x="1180" y="230" width="78" height="78" as="geometry" />
        </mxCell>
        <mxCell id="VzwTH26_Pi-GNN5dby0--69" value="AWS Systems Manager" style="sketch=0;points=[[0,0,0],[0.25,0,0],[0.5,0,0],[0.75,0,0],[1,0,0],[0,1,0],[0.25,1,0],[0.5,1,0],[0.75,1,0],[1,1,0],[0,0.25,0],[0,0.5,0],[0,0.75,0],[1,0.25,0],[1,0.5,0],[1,0.75,0]];points=[[0,0,0],[0.25,0,0],[0.5,0,0],[0.75,0,0],[1,0,0],[0,1,0],[0.25,1,0],[0.5,1,0],[0.75,1,0],[1,1,0],[0,0.25,0],[0,0.5,0],[0,0.75,0],[1,0.25,0],[1,0.5,0],[1,0.75,0]];outlineConnect=0;fontColor=#232F3E;fillColor=#E7157B;strokeColor=#ffffff;dashed=0;verticalLabelPosition=bottom;verticalAlign=top;align=center;html=1;fontSize=12;fontStyle=0;aspect=fixed;shape=mxgraph.aws4.resourceIcon;resIcon=mxgraph.aws4.systems_manager;" parent="VzwTH26_Pi-GNN5dby0--1" vertex="1">
          <mxGeometry x="1180" y="410" width="78" height="78" as="geometry" />
        </mxCell>
        <mxCell id="VzwTH26_Pi-GNN5dby0--75" value="" style="endArrow=classic;startArrow=classic;html=1;rounded=0;exitX=0.5;exitY=0.02;exitDx=0;exitDy=0;exitPerimeter=0;" parent="VzwTH26_Pi-GNN5dby0--1" source="VzwTH26_Pi-GNN5dby0--14" target="VzwTH26_Pi-GNN5dby0--36" edge="1">
          <mxGeometry width="50" height="50" relative="1" as="geometry">
            <mxPoint x="750" y="550" as="sourcePoint" />
            <mxPoint x="800" y="500" as="targetPoint" />
          </mxGeometry>
        </mxCell>
        <mxCell id="VzwTH26_Pi-GNN5dby0--76" value="Read/Write&lt;div&gt;&lt;br&gt;&lt;/div&gt;" style="edgeLabel;html=1;align=center;verticalAlign=middle;resizable=0;points=[];" parent="VzwTH26_Pi-GNN5dby0--75" vertex="1" connectable="0">
          <mxGeometry x="-0.1877" y="-2" relative="1" as="geometry">
            <mxPoint as="offset" />
          </mxGeometry>
        </mxCell>
        <mxCell id="ZVkZ2SLX2nM8dIhRE-wy-2" style="edgeStyle=orthogonalEdgeStyle;rounded=0;orthogonalLoop=1;jettySize=auto;html=1;entryX=0;entryY=0.5;entryDx=0;entryDy=0;entryPerimeter=0;" edge="1" parent="VzwTH26_Pi-GNN5dby0--1" source="VzwTH26_Pi-GNN5dby0--12" target="VzwTH26_Pi-GNN5dby0--28">
          <mxGeometry relative="1" as="geometry" />
        </mxCell>
        <mxCell id="ZVkZ2SLX2nM8dIhRE-wy-4" style="edgeStyle=orthogonalEdgeStyle;rounded=0;orthogonalLoop=1;jettySize=auto;html=1;entryX=1;entryY=0.5;entryDx=0;entryDy=0;entryPerimeter=0;" edge="1" parent="VzwTH26_Pi-GNN5dby0--1" source="VzwTH26_Pi-GNN5dby0--28" target="VzwTH26_Pi-GNN5dby0--14">
          <mxGeometry relative="1" as="geometry" />
        </mxCell>
        <mxCell id="ZVkZ2SLX2nM8dIhRE-wy-5" value="Test Env Read/Write" style="edgeLabel;html=1;align=center;verticalAlign=middle;resizable=0;points=[];" vertex="1" connectable="0" parent="ZVkZ2SLX2nM8dIhRE-wy-4">
          <mxGeometry x="-0.0965" y="4" relative="1" as="geometry">
            <mxPoint as="offset" />
          </mxGeometry>
        </mxCell>
        <mxCell id="VzwTH26_Pi-GNN5dby0--38" value="" style="group" parent="1" vertex="1" connectable="0">
          <mxGeometry x="-150" y="-200" width="830" height="290" as="geometry" />
        </mxCell>
        <mxCell id="VzwTH26_Pi-GNN5dby0--41" value="Employee" style="shape=image;html=1;verticalAlign=top;verticalLabelPosition=bottom;labelBackgroundColor=#ffffff;imageAspect=0;aspect=fixed;image=https://cdn0.iconfinder.com/data/icons/job-seeker/256/laptop_job_seeker_employee_unemployee_work_1-128.png" parent="VzwTH26_Pi-GNN5dby0--38" vertex="1">
          <mxGeometry x="150.75" y="170.00289156626508" width="48.915662650602414" height="48.915662650602414" as="geometry" />
        </mxCell>
        <mxCell id="VzwTH26_Pi-GNN5dby0--42" value="Internet Access&lt;div&gt;&lt;br&gt;&lt;/div&gt;" style="outlineConnect=0;dashed=0;verticalLabelPosition=bottom;verticalAlign=top;align=center;html=1;shape=mxgraph.aws3.internet_3;fillColor=#D2D3D3;gradientColor=none;" parent="VzwTH26_Pi-GNN5dby0--38" vertex="1">
          <mxGeometry x="150.75" y="252.26506024096386" width="59.625" height="37.734939759036145" as="geometry" />
        </mxCell>
        <mxCell id="VzwTH26_Pi-GNN5dby0--43" style="edgeStyle=none;curved=1;rounded=0;orthogonalLoop=1;jettySize=auto;html=1;entryX=0;entryY=0.7;entryDx=0;entryDy=0;entryPerimeter=0;fontSize=12;startSize=8;endSize=8;" parent="VzwTH26_Pi-GNN5dby0--38" source="VzwTH26_Pi-GNN5dby0--41" target="VzwTH26_Pi-GNN5dby0--42" edge="1">
          <mxGeometry relative="1" as="geometry">
            <Array as="points">
              <mxPoint x="90" y="258.5542168674699" />
            </Array>
          </mxGeometry>
        </mxCell>
        <mxCell id="VzwTH26_Pi-GNN5dby0--45" value="" style="endArrow=classic;html=1;rounded=0;fontSize=12;startSize=8;endSize=8;curved=1;" parent="VzwTH26_Pi-GNN5dby0--38" edge="1">
          <mxGeometry width="50" height="50" relative="1" as="geometry">
            <mxPoint x="157.5" y="188.67469879518072" as="sourcePoint" />
            <mxPoint x="157.5" y="69.87951807228916" as="targetPoint" />
          </mxGeometry>
        </mxCell>
        <mxCell id="VzwTH26_Pi-GNN5dby0--46" value="" style="endArrow=classic;html=1;rounded=0;fontSize=12;startSize=8;endSize=8;curved=1;" parent="VzwTH26_Pi-GNN5dby0--38" edge="1">
          <mxGeometry width="50" height="50" relative="1" as="geometry">
            <mxPoint x="187.5" y="69.87951807228916" as="sourcePoint" />
            <mxPoint x="187.5" y="195.66265060240966" as="targetPoint" />
          </mxGeometry>
        </mxCell>
        <mxCell id="VzwTH26_Pi-GNN5dby0--47" value="1.Request session" style="text;html=1;align=center;verticalAlign=middle;resizable=0;points=[];autosize=1;strokeColor=none;fillColor=none;fontSize=16;" parent="VzwTH26_Pi-GNN5dby0--38" vertex="1">
          <mxGeometry x="-9.25" y="97.83132530120483" width="160" height="30" as="geometry" />
        </mxCell>
        <mxCell id="VzwTH26_Pi-GNN5dby0--48" value="2. Send back credential toke" style="text;html=1;align=center;verticalAlign=middle;resizable=0;points=[];autosize=1;strokeColor=none;fillColor=none;fontSize=16;" parent="VzwTH26_Pi-GNN5dby0--38" vertex="1">
          <mxGeometry x="202.5" y="97.83132530120483" width="230" height="30" as="geometry" />
        </mxCell>
        <mxCell id="VzwTH26_Pi-GNN5dby0--50" value="" style="endArrow=classic;html=1;rounded=0;fontSize=12;startSize=8;endSize=8;curved=1;" parent="VzwTH26_Pi-GNN5dby0--38" edge="1">
          <mxGeometry width="50" height="50" relative="1" as="geometry">
            <mxPoint x="180" y="290" as="sourcePoint" />
            <mxPoint x="180" y="350" as="targetPoint" />
          </mxGeometry>
        </mxCell>
        <mxCell id="VzwTH26_Pi-GNN5dby0--56" value="" style="shape=image;verticalLabelPosition=bottom;labelBackgroundColor=default;verticalAlign=top;aspect=fixed;imageAspect=0;image=data:image/png,iVBORw0KGgoAAAANSUhEUgAAAOEAAADhCAMAAAAJbSJIAAABF1BMVEX///8AAAAzcP8A1rkTPJqmpqYvbv/Hx8dIff+ysrKBgYFkZGQA07QA2LlFRUWjo6Pj4+OPj48AIpISNpkoa/9MTExUVFTt7e12dnYTY/+bm5s0cv/c3NxsbGz39/fe3t43NzchaP/i+fX1/fwPDw8jIyMaGhr19fV+fn4vLy/o6/Siuf94iL0AKJM8d/8AL5bi6f8ZTp62yP91mf9IYarK1/9hjP+Jp/+bs//R9e9y49A+28Nh4Mu28OXW9vHAwMC/8unZ3+2S6dq7wNwtTaIPqrAVXaAQoK4VQ5wMwbUUjaoAHpGToMpVbK9JYqrd4e6BkMGFmtUnVMAsW8kAQrUwY9s0aegtV72xxP/W4P9Whf9+n//C0P/V2K/bAAAF60lEQVR4nO2aa1/aSBSHQ9TIVRCiEqEWtBVtBS/b4rWlVrfrbne3u3XVVfz+n2NDkgkhmZmcCWxp/f2fvrDgkJnHM3PmTIKmAQAAAAAAAAAAAAAAAAAAAAAAAAAAAAAAAAAAAAAAAAAAAAAAAAAAAAAAAAAAPD2O8zMxnKxPe4xjchKrmP/RFY/jDGdmpj3Ecdk4jQvj2bSHODZxMzX/btojHJt3cYob0x7h2MSl1JNvN5R6xqE06euuxwTx/aQ7FFJMOcxP/MIbcsVT4mUWUiKW12hXmAsbvnhp08ioK4WRK+aPaVcRG6aytCtEDFfdNxYTOIU5nUAQl8SGOdoVIobaC/edSaxMmSJxJf4fhj1vmicwiiALIi2dSmbp0LC+IrlC1FBbjr6VFNlazJOusEgwLKU2Q1lnvjjn88xtnR2+M5d139qcgKFMkVjY9DJRtkcMS4PBtkY+tCX+uwQpTkLxvXjrT16dLgQNS86L7ZEGWZphirjhyPkgVHSn6atzm1fJDUveYOtJDKvUHl/LRvhRoFgofLjYudwtt23K7cudC7pmwJAJjub+WMMlL9k8J/bYMWSjO+P7/fypvFuZ9anslt9cKBv6glsjDYpxhsvapvOzQewxbdZkijy/X67aAT2PdkXR0BcMT7fiVpbhRSvnvWywz/aKNqstbgdRQ8OQKa6H52nh1/12RM9mlzhRmaFQMEhoP3Q3j2e0jnzShm7oktGNHhcLhd+4frOfz4n9uYVOboWUMEKGy5xJHY9tqBvmnrhBcCkWZj7tcgXbv1P7c0eZ26YIhg3d+BOrdp+BoW5Y98IGG0HB/egCdFLNPrm/nDNKr4COm3Ehw0ZyQ123DoQt/F1RKDhbps5Rtpb8klWe8kOGbuBVj06eoW4dCZucxQlW/qD3V3UzfYYp1mWNQ4YvnVer9M4cmKHe7IqabOTlgiohZOU4O8vKFUOG7txWrUh9Q93siPLNIJ9KBCt/KvTnbeiBk4dEMWToviquDKD3ODS0841oMZ7aglciQaUQat70XOEq+nsIAfIxP2BoL8af+I3sU4YwgrOVNwqC2vzQKqqoYki8TRAy1E2dv218FAuqhZDVMj2Np6hiSL6RMWpoh/GQ06h1KRZUWoWav5g0nuI3iKETxrfhNl8qYkHFELKU79UyIcWWgiH5fBgxHKzG0Tr1oiz2U1yFGitqGlpI0c2X1ONvSqG04Rjq5sj2vyMTVA4h2wjZS6bI3TM499o0VryRSxueob3962zjOL/k19oshArljMt8yMhV5FdvfEPF4o1vaDt2Hge//uuzZAkOQvhF1dBba8PKZFEoKDBULN5Ehvb+n357UZEG0D73/q0qyEIQSPYl4e1dvuFm6E+U1NB2bBpf5YKz/6gLspVHuRvIN3TL0zlqfxJDm1rnWioY2VgIeAuR8oiMb0j/vIPc0Has3dwJBfuKcsERNggtuYZeMu5Ru4szHDh2rq94gjdpNTNGNjJu0YwNGpbmXaopbmDHMXQkb7+GJe9qTcndHRnPw0EsbgtaBg39A2WKvo7phgPH2u31cLreXddqVpJF6OA9WGQ7ml2MLygb0u8pEg2Z5e3Nzc3trf0/3fo3qSDLNV6yaA1y45KqIf0IrGDoWDr/bKzXiQWHT4erK74u9zAkNlR4QqpoyBhLkHtKijPMBNpuU5/KJDY0xpiiwaEH4B73RnaL7JJLLqv2iDuJoZE8yTCqIUF+NuXv+Ir0TWVBs5ZwmwhSJQhOxnDPUgyiIbpdpUhwXYnO6xMx1O6NplIAm4/j9efTYgf6BaHBpL7XdkgPo2H1J/INAY96pljsSXa2+qrD+N+A2uvSHA3rQfyM6jvnvmvFZhzTehg7hU6Tvb7VlATSaFr9HzZ+jLWDrtU0OZaG2bS6B5Ncf9Nj7fEwbdmapuGIGoZpy1npw8enoeexdn9w1O8+dOyDb7rbPzq4f1J2AAAAAAAAAAAAAAAAAAAAAAAAAAAAAAAAAAAAAAAAAAAAAAAAAAAAAAAAAAAA3yf/AVrNgaNibi+wAAAAAElFTkSuQmCC;" parent="VzwTH26_Pi-GNN5dby0--38" vertex="1">
          <mxGeometry x="140.37" y="-20" width="80" height="80" as="geometry" />
        </mxCell>
      </root>
    </mxGraphModel>
  </diagram>
</mxfile>
